# AST/ASF file generated using VICON BodyLanguage
# -----------------------------------------------
:version 1.10
:name VICON
:units
  mass 1.0
  length 0.45
  angle deg
:documentation
   .ast/.asf automatically generated from VICON data using
   VICON BodyBuilder and BodyLanguage model FoxedUp or BRILLIANT.MOD
:root
   order TX TY TZ RX RY RZ
   axis XYZ
   position 0 0 0  
   orientation 0 0 0 
:bonedata
  begin
     id 1 
     name lhipjoint
     direction 0.624716 -0.669793 0.401383 
     length 2.38238 
     axis 0 0 0  XYZ
  end
  begin
     id 2 
     name lfemur
     direction 0.34202 -0.939693 0  
     length 6.4574  
     axis 0 0 20  XYZ
    dof rx ry rz
    limits (-160.0 20.0)
           (-70.0 70.0)
           (-60.0 70.0)
  end
  begin
     id 3 
     name ltibia
     direction 0.34202 -0.939693 0   
     length 7.68739   
     axis 0 0 20   XYZ
    dof rx
    limits (-10.0 170.0)
  end
  begin
     id 4 
     name lfoot
     direction 0.0681309 -0.187188 0.979959   
     length 2.46615   
     axis -90 7.62852e-016 20   XYZ
    dof rx rz
    limits (-45.0 90.0)
           (-70.0 20.0)
  end
  begin
     id 5 
     name ltoes
     direction 1.53566e-011 -4.21819e-011 1   
     length 1.2376   
     axis -90 7.62852e-016 20   XYZ
    dof rx
    limits (-90.0 20.0)
  end
  begin
     id 6 
     name rhipjoint
     direction -0.644473 -0.655875 0.393043   
     length 2.43293  
     axis 0 0 0  XYZ 
  end
  begin
     id 7 
     name rfemur
     direction -0.34202 -0.939693 0   
     length 6.7025   
     axis 0 0 -20   XYZ
    dof rx ry rz
    limits (-160.0 20.0)
           (-70.0 70.0)
           (-70.0 60.0)
  end
  begin
     id 8 
     name rtibia
     direction -0.34202 -0.939693 0   
     length 7.80547   
     axis 0 0 -20   XYZ
    dof rx
    limits (-10.0 170.0)
 end
 begin
     id 9 
     name rfoot
     direction -0.0756734 -0.207911 0.975216   
     length 2.40315  
     axis -90 -7.62852e-016 -20   XYZ
    dof rx rz
    limits (-45.0 90.0)
           (-20.0 70.0)
  end
  begin
     id 10 
     name rtoes
     direction -1.5353e-011 -4.21879e-011 1   
     length 1.20477   
     axis -90 -7.62852e-016 -20   XYZ
    dof rx
    limits (-90.0 20.0)
  end
  begin
     id 11 
     name lowerback
     direction 0.0160353 0.987463 -0.157037   
     length 2.18572   
     axis 0 0 0   XYZ
    dof rx ry rz
    limits (-20.0 45.0)
           (-30.0 30.0)
           (-30.0 30.0)
  end
  begin
     id 12 
     name upperback
     direction -0.00499661 0.999756 0.0215076   
     length 2.18016   
     axis 0 0 0   XYZ
    dof rx ry rz
    limits (-20.0 45.0)
           (-30.0 30.0)
           (-30.0 30.0)
  end
  begin
     id 13 
     name thorax
     direction -0.00921346 0.995333 0.0960619   
     length 2.24923   
     axis 0 0 0   XYZ
    dof rx ry rz
    limits (-20.0 45.0)
           (-30.0 30.0)
           (-30.0 30.0)
  end
  begin
     id 14 
     name lowerneck
     direction 0.0274184 0.991181 0.12965   
     length 1.70911   
     axis 0 0 0   XYZ
    dof rx ry rz
    limits (-20.0 45.0)
           (-30.0 30.0)
           (-30.0 30.0)
  end
  begin
     id 15 
     name upperneck
     direction 0.0015627 0.999959 -0.00893559   
     length 1.69312   
     axis 0 0 0   XYZ
    dof rx ry rz
    limits (-20.0 45.0)
           (-30.0 30.0)
           (-30.0 30.0)
  end
  begin
     id 16
     name head
     direction -0.00230242 0.999856 -0.0168327  
     length 1.80241  
     axis 0 0 0   XYZ
    dof rx ry rz
    limits (-20.0 45.0)
           (-30.0 30.0)
           (-30.0 30.0)
  end
  begin
     id 17 
     name lclavicle
     direction 0.955523 0.290741 -0.0494489  
     length 3.84275  
     axis 0 0 0   XYZ
    dof ry rz
    limits (-20.0 10.0)
           (0.0 20.0)
  end
  begin
     id 18 
     name lhumerus
     direction 1 -4.48967e-011 -3.18382e-028   
     length 5.17714   
     axis 180 -30 -90   XYZ
    dof rx ry rz
    limits (-60.0 90.0)
           (-90.0 90.0)
           (-90.0 90.0)
  end
  begin
     id 19
     name lradius
     direction 1 -4.48968e-011 -2.22911e-027   
     length 3.43679   
     axis 180 -30 -90   XYZ
    dof rx
    limits (-10.0 170.0)
  end
  begin
     id 20
     name lwrist
     direction 1 -4.48951e-011 -6.32245e-027   
     length 1.7184   
     axis 3.57107e-015 90 90   XYZ
    dof ry
    limits (-180.0 0.0)
 end
  begin
     id 21 
     name lhand
     direction 1 -4.48924e-011 -1.26431e-026   
     length 0.573117   
     axis 8.06912e-015 90 90   XYZ
    dof rx rz
    limits (-90.0 90.0)
           (-45.0 45.0)
  end
  begin
     id 22 
     name lfingers
     direction 1 -4.49001e-011 -2.52965e-026   
     length 0.462062   
     axis 1.61381e-014 90 90   XYZ
    dof rx
    limits (0.0 90.0)
  end
  begin
     id 23
     name lthumb
     direction 0.707107 -6.35008e-011 0.707107   
     length 0.663431   
     axis -90 45 -1.62303e-014   XYZ
    dof rx rz
    limits (-45.0 45.0)
           (-45.0 45.0)
  end
  begin
     id 24 
     name rclavicle
     direction -0.963917 0.256881 -0.0698287   
     length 3.73057  
     axis 0 0 0   XYZ 
    dof ry rz
    limits (-10.0 20.0)
           (-20.0 0.0)
  end
  begin
     id 25 
     name rhumerus
     direction -1 -4.48962e-011 -2.73982e-027  
     length 5.23908   
     axis 180 30 90   XYZ
    dof rx ry rz
    limits (-90.0 60.0)
           (-90.0 90.0)
           (-90.0 90.0)
  end
  begin
     id 26 
     name rradius
     direction -1 -4.48968e-011 -4.33218e-027   
     length 3.46485   
     axis 180 30 90   XYZ
    dof rx
    limits (-10.0 170.0)
  end
  begin
     id 27 
     name rwrist
     direction -1 -4.48989e-011 -6.32372e-027   
     length 1.73243   
     axis 3.57107e-015 -90 -90   XYZ
    dof ry
    limits (-180.0 0.0)
  end
  begin
     id 28
     name rhand
     direction -1 -4.48948e-011 -1.26448e-026   
     length 0.608752   
     axis 8.06912e-015 -90 -90   XYZ
    dof rx rz
    limits (-90.0 90.0)
           (-45.0 45.0)
  end
  begin
     id 29
     name rfingers
     direction -1 -4.48962e-011 -2.52913e-026   
     length 0.490792   
     axis 1.61381e-014 -90 -90   XYZ
    dof rx
    limits (0.0 90.0)
  end
  begin
     id 30
     name rthumb
     direction -0.707107 -6.34878e-011 0.707107   
     length 0.704682   
     axis -90 -45 1.62303e-014   XYZ
    dof rx rz
    limits (-45.0 45.0)
           (-45.0 45.0)
  end
:hierarchy
  begin
    root lhipjoint rhipjoint lowerback
    lhipjoint lfemur
    lfemur ltibia
    ltibia lfoot
    lfoot ltoes
    rhipjoint rfemur
    rfemur rtibia
    rtibia rfoot
    rfoot rtoes
    lowerback upperback
    upperback thorax
    thorax lowerneck lclavicle rclavicle
    lowerneck upperneck
    upperneck head
    lclavicle lhumerus
    lhumerus lradius
    lradius lwrist
    lwrist lhand lthumb
    lhand lfingers
    rclavicle rhumerus
    rhumerus rradius
    rradius rwrist
    rwrist rhand rthumb
    rhand rfingers
  end

#!OML:ASF G:\JayActor3\Patient Classification 1\Patient 1\Session 6\male.ASF
:FULLY-SPECIFIED
:DEGREES
109
root 9.05182 14.094 -4.34029 31.8659 -87.3233 -21.7403
lowerback 20.2668 -1.50338 2.15438
upperback 0.595994 -1.60252 -0.351928
thorax -10.8102 -0.908689 -1.14471
lowerneck -13.3841 0.31267 2.47429
upperneck -0.780177 -0.135314 0.932937
head 2.04773 -0.0943655 -0.139591
rclavicle 1.3418e-014 -3.57812e-015
rhumerus 23.8339 8.28722 -65.4778
rradius 76.9826
rwrist 17.7824
rhand -0.69995 -10.8922
rfingers 7.12502
rthumb 24.9198 -39.2876
lclavicle 1.3418e-014 -3.57812e-015
lhumerus 20.6238 -10.6085 63.7652
lradius 77.4034
lwrist -1.36998
lhand -4.68024 16.4738
lfingers 7.12502
lthumb 21.1006 45.3457
rfemur -56.007 -14.3008 24.62
rtibia 80.4659
rfoot -32.2276 -8.8092
rtoes -12.0182
lfemur -54.8241 15.8926 -16.1544
ltibia 74.3112
lfoot -26.4347 0.979922
ltoes -12.2849
110
root 9.05341 14.0922 -4.3433 31.2924 -87.296 -21.1485
lowerback 20.2568 -1.50702 2.13743
upperback 0.591506 -1.61105 -0.350732
thorax -10.8095 -0.911706 -1.13138
lowerneck -13.3841 0.308359 2.47416
upperneck -0.744086 -0.141204 0.948241
head 2.05985 -0.0959404 -0.135052
rclavicle 3.08116e-015 7.35503e-015
rhumerus 23.8387 8.27613 -65.4766
rradius 76.9816
rwrist 17.8218
rhand -0.712296 -10.881
rfingers 7.12502
rthumb 24.9079 -39.278
lclavicle 3.08116e-015 7.35503e-015
lhumerus 20.6468 -10.6446 63.745
lradius 77.3943
lwrist -1.35158
lhand -4.67848 16.4715
lfingers 7.12502
lthumb 21.1023 45.3432
rfemur -56.0475 -14.3023 24.6246
rtibia 80.4949
rfoot -32.2485 -8.84453
rtoes -12.013
lfemur -54.8724 15.8854 -16.1689
ltibia 74.3239
lfoot -26.419 0.951693
ltoes -12.2712
111
root 9.05471 14.0905 -4.34614 30.7803 -87.2736 -20.623
lowerback 20.2522 -1.50905 2.12308
upperback 0.586917 -1.61696 -0.351185
thorax -10.8119 -0.91371 -1.122
lowerneck -13.3809 0.302414 2.47492
upperneck -0.712309 -0.149239 0.961901
head 2.06991 -0.0987263 -0.131306
rclavicle 8.84592e-015 1.59028e-015
rhumerus 23.8403 8.2645 -65.4764
rradius 76.9818
rwrist 17.8545
rhand -0.721428 -10.8719
rfingers 7.12502
rthumb 24.8992 -39.2702
lclavicle 8.84592e-015 1.59028e-015
lhumerus 20.6714 -10.6794 63.7271
lradius 77.3823
lwrist -1.33251
lhand -4.67885 16.4658
lfingers 7.12502
lthumb 21.1019 45.3375
rfemur -56.081 -14.3023 24.6274
rtibia 80.5245
rfoot -32.2714 -8.87423
rtoes -12.0013
lfemur -54.9115 15.8836 -16.1821
ltibia 74.3366
lfoot -26.4085 0.92027
ltoes -12.2514
112
root 9.05684 14.0883 -4.34927 30.1152 -87.2375 -19.9306
lowerback 20.2415 -1.51638 2.1081
upperback 0.577034 -1.62974 -0.350395
thorax -10.8171 -0.918832 -1.10895
lowerneck -13.3684 0.296229 2.47711
upperneck -0.693312 -0.157385 0.972464
head 2.07398 -0.10194 -0.128775
rclavicle 6.75868e-015 -6.75868e-015
rhumerus 23.8423 8.25371 -65.4768
rradius 76.9825
rwrist 17.8716
rhand -0.725722 -10.8665
rfingers 7.12502
rthumb 24.8951 -39.2653
lclavicle 6.75868e-015 -6.75868e-015
lhumerus 20.6971 -10.7083 63.714
lradius 77.3679
lwrist -1.31189
lhand -4.68217 16.4592
lfingers 7.12502
lthumb 21.0988 45.3312
rfemur -56.1393 -14.3177 24.6356
rtibia 80.5614
rfoot -32.2921 -8.9052
rtoes -11.9892
lfemur -54.9773 15.8701 -16.2016
ltibia 74.3528
lfoot -26.3916 0.888266
ltoes -12.2419
113
root 9.05886 14.0861 -4.35216 29.4325 -87.2014 -19.2237
lowerback 20.234 -1.52442 2.09473
upperback 0.568349 -1.64318 -0.350626
thorax -10.8228 -0.92439 -1.0977
lowerneck -13.3502 0.289793 2.48041
upperneck -0.6846 -0.165744 0.979853
head 2.07354 -0.10559 -0.127441
rclavicle 3.97569e-016 1.0138e-014
rhumerus 23.8455 8.24197 -65.478
rradius 76.983
rwrist 17.8685
rhand -0.72128 -10.8618
rfingers 7.12502
rthumb 24.8993 -39.26
lclavicle 3.97569e-016 1.0138e-014
lhumerus 20.7246 -10.7302 63.7072
lradius 77.3515
lwrist -1.28895
lhand -4.68615 16.452
lfingers 7.12502
lthumb 21.0949 45.3246
rfemur -56.1944 -14.341 24.6412
rtibia 80.597
rfoot -32.3083 -8.93334
rtoes -11.9827
lfemur -55.0372 15.8546 -16.2226
ltibia 74.3666
lfoot -26.3764 0.856985
ltoes -12.2328
114
root 9.06027 14.0845 -4.35454 28.8613 -87.1748 -18.6407
lowerback 20.2339 -1.52899 2.08465
upperback 0.563873 -1.6515 -0.352255
thorax -10.8278 -0.927802 -1.09127
lowerneck -13.326 0.28383 2.48337
upperneck -0.684298 -0.17318 0.986265
head 2.0692 -0.108992 -0.126287
rclavicle -1.49089e-015 -4.37326e-015
rhumerus 23.8487 8.22865 -65.4795
rradius 76.9824
rwrist 17.8464
rhand -0.708757 -10.8616
rfingers 7.12502
rthumb 24.9113 -39.2581
lclavicle -1.49089e-015 -4.37326e-015
lhumerus 20.7543 -10.7455 63.7105
lradius 77.3311
lwrist -1.26781
lhand -4.69285 16.4462
lfingers 7.12502
lthumb 21.0885 45.3195
rfemur -56.2299 -14.3639 24.6418
rtibia 80.6266
rfoot -32.3204 -8.95414
rtoes -11.9811
lfemur -55.0741 15.8462 -16.2405
ltibia 74.3765
lfoot -26.3673 0.831595
ltoes -12.2326
115
root 9.06053 14.0836 -4.3562 28.5073 -87.1647 -18.2941
lowerback 20.241 -1.52754 2.07921
upperback 0.567692 -1.65114 -0.354842
thorax -10.8274 -0.927455 -1.09103
lowerneck -13.2952 0.278141 2.48715
upperneck -0.693931 -0.180037 0.989895
head 2.06031 -0.112411 -0.126106
rclavicle -7.7526e-015 -3.77691e-015
rhumerus 23.8542 8.21372 -65.4804
rradius 76.9799
rwrist 17.8074
rhand -0.686721 -10.8632
rfingers 7.12502
rthumb 24.9325 -39.2568
lclavicle -7.7526e-015 -3.77691e-015
lhumerus 20.7873 -10.7535 63.7236
lradius 77.3053
lwrist -1.25132
lhand -4.70155 16.4387
lfingers 7.12502
lthumb 21.0801 45.3129
rfemur -56.2336 -14.3793 24.6363
rtibia 80.6455
rfoot -32.3289 -8.96512
rtoes -11.9877
lfemur -55.0747 15.852 -16.2506
ltibia 74.3799
lfoot -26.366 0.808743
ltoes -12.2268
116
root 9.05997 14.0833 -4.35726 28.3212 -87.1638 -18.1289
lowerback 20.251 -1.5227 2.0807
upperback 0.578296 -1.64502 -0.358043
thorax -10.821 -0.924803 -1.09711
lowerneck -13.2622 0.272707 2.48995
upperneck -0.708134 -0.186348 0.993591
head 2.0495 -0.115659 -0.125691
rclavicle -1.43125e-014 -1.21259e-014
rhumerus 23.8629 8.19744 -65.4789
rradius 76.975
rwrist 17.7548
rhand -0.654589 -10.8709
rfingers 7.12502
rthumb 24.9632 -39.2603
lclavicle -1.43125e-014 -1.21259e-014
lhumerus 20.8248 -10.7549 63.7465
lradius 77.2737
lwrist -1.24452
lhand -4.71336 16.4306
lfingers 7.12502
lthumb 21.0688 45.306
rfemur -56.214 -14.3931 24.6286
rtibia 80.6571
rfoot -32.3346 -8.96821
rtoes -12.0057
lfemur -55.05 15.8671 -16.2535
ltibia 74.3802
lfoot -26.3712 0.787687
ltoes -12.2191
117
root 9.05872 14.0834 -4.35789 28.317 -87.171 -18.1552
lowerback 20.2613 -1.51429 2.08973
upperback 0.593964 -1.63272 -0.36179
thorax -10.809 -0.919665 -1.10997
lowerneck -13.2293 0.266781 2.49375
upperneck -0.723428 -0.193422 0.996134
head 2.03832 -0.119351 -0.125857
rclavicle -1.76918e-014 -3.37934e-015
rhumerus 23.8731 8.17758 -65.4761
rradius 76.9678
rwrist 17.6959
rhand -0.609957 -10.8808
rfingers 7.12502
rthumb 25.006 -39.2642
lclavicle -1.76918e-014 -3.37934e-015
lhumerus 20.8665 -10.7529 63.7762
lradius 77.2371
lwrist -1.24905
lhand -4.72547 16.4182
lfingers 7.12502
lthumb 21.0572 45.2949
rfemur -56.1775 -14.4028 24.6214
rtibia 80.6633
rfoot -32.34 -8.96421
rtoes -12.0277
lfemur -55.0079 15.8908 -16.2492
ltibia 74.3797
lfoot -26.3811 0.770065
ltoes -12.2145
118
root 9.05871 14.0826 -4.3591 28.0934 -87.1532 -17.9382
lowerback 20.2563 -1.5136 2.09802
upperback 0.601393 -1.63034 -0.36266
thorax -10.7981 -0.918966 -1.11653
lowerneck -13.1932 0.260047 2.49645
upperneck -0.739546 -0.201232 0.998401
head 2.0263 -0.123424 -0.125955
rclavicle -1.02374e-014 4.17448e-015
rhumerus 23.8829 8.15641 -65.4694
rradius 76.9598
rwrist 17.6337
rhand -0.55402 -10.8968
rfingers 7.12502
rthumb 25.0596 -39.2728
lclavicle -1.02374e-014 4.17448e-015
lhumerus 20.909 -10.7505 63.8121
lradius 77.1984
lwrist -1.26459
lhand -4.73803 16.4039
lfingers 7.12502
lthumb 21.0451 45.282
rfemur -56.1807 -14.4338 24.6243
rtibia 80.68
rfoot -32.3447 -8.96285
rtoes -12.0458
lfemur -55.0126 15.8939 -16.2534
ltibia 74.3871
lfoot -26.378 0.750377
ltoes -12.2099
